<svg data-v-423bf9ae="" xmlns="http://www.w3.org/2000/svg" viewBox="0 0 784 105" class="iconLeft"><!----><!----><!----><g data-v-423bf9ae="" id="9b69bf8d-8152-40e0-879d-2e40d9502b4d" fill="black" transform="matrix(5.719355191486333,0,0,5.719355191486333,108.44798297960068,0.7707717802477845)"><path d="M1.47 14L2.62 14C3.12 14 3.36 14 3.36 13.68C3.36 13.40 2.94 13.47 2.94 12.99L2.94 10.16C2.94 10.02 3.04 9.90 3.21 9.90L5.73 9.90C6.03 9.90 6.16 10.19 6.33 10.19C6.52 10.19 6.55 10.01 6.55 9.80L6.55 8.54C6.55 8.34 6.50 8.23 6.33 8.23C6.06 8.23 6.05 8.55 5.73 8.55L3.28 8.55C3.04 8.55 2.94 8.44 2.94 8.26L2.95 5.94C2.95 5.70 3.01 5.64 3.39 5.64L7.39 5.64C8.13 5.64 7.84 6.13 8.22 6.13C8.40 6.13 8.48 5.96 8.48 5.47L8.48 4.45C8.48 4.26 8.36 4.20 8.05 4.20L1.55 4.20C0.97 4.20 0.70 4.19 0.70 4.47C0.70 4.83 1.29 4.54 1.29 5.81L1.26 12.99C1.26 13.47 0.78 13.47 0.78 13.69C0.78 13.99 1.06 14 1.47 14ZM8.18 14L9.76 14C10.16 14 10.37 13.97 10.37 13.76C10.37 13.29 9.95 13.62 10.16 12.81L10.29 12.32C10.36 12.17 10.53 12.12 10.67 12.12L14.06 12.12C14.24 12.12 14.35 12.15 14.42 12.35L14.67 13.05C14.84 13.52 14.35 13.36 14.35 13.76C14.35 13.97 14.49 14 14.81 14L16.49 14C16.88 14 17.02 13.97 17.02 13.73C17.02 13.41 16.62 13.51 16.41 12.96L13.41 5.22C13.22 4.73 13.68 4.77 13.68 4.47C13.68 4.27 13.55 4.20 13.33 4.20L11.27 4.20C11.06 4.20 10.93 4.27 10.93 4.47C10.93 4.73 11.30 4.72 11.13 5.22L8.47 12.89C8.26 13.51 7.78 13.38 7.78 13.73C7.78 13.96 7.98 14 8.18 14ZM11.00 10.74C10.84 10.74 10.75 10.65 10.81 10.49L12.17 6.55C12.21 6.43 12.33 6.41 12.39 6.57L13.78 10.43C13.83 10.58 13.80 10.74 13.64 10.74ZM18.21 14L19.80 14C19.89 14 20.30 14 20.30 13.80C20.30 13.50 19.78 13.54 19.78 12.80L19.78 5.32C19.78 4.58 20.29 4.63 20.29 4.41C20.29 4.16 19.89 4.20 19.80 4.20L18.26 4.20C18.10 4.20 17.82 4.20 17.82 4.41C17.82 4.66 18.23 4.59 18.23 5.32L18.23 12.80C18.23 13.47 17.72 13.51 17.72 13.75C17.72 13.99 17.92 14 18.21 14ZM24.77 14L26.75 14C26.96 14 27.09 13.96 27.09 13.75C27.09 13.50 26.61 13.55 26.61 13.02L26.63 5.94C26.63 5.67 26.74 5.56 26.99 5.56L28.78 5.56C29.33 5.56 29.20 5.98 29.48 5.98C29.67 5.98 29.75 5.81 29.75 5.28L29.75 4.49C29.75 4.28 29.61 4.20 29.41 4.20L21.92 4.20C21.67 4.20 21.56 4.28 21.56 4.52L21.56 5.40C21.56 5.81 21.63 5.92 21.81 5.92C22.08 5.92 21.92 5.54 22.74 5.54L24.54 5.56C24.88 5.56 24.93 5.70 24.93 5.95L24.91 13.01C24.91 13.51 24.42 13.52 24.42 13.78C24.42 13.96 24.56 14 24.77 14ZM31.12 14L32.86 14C33.21 14 33.52 13.99 33.52 13.79C33.52 13.43 32.89 13.62 32.89 12.87L32.89 10.01C32.89 9.86 33.08 9.79 33.29 9.79L37.84 9.79C38.04 9.79 38.18 9.90 38.18 10.19L38.23 12.95C38.23 13.54 37.65 13.54 37.65 13.83C37.65 13.99 37.95 14 38.08 14L39.72 14C40.19 14 40.46 13.99 40.46 13.75C40.46 13.48 39.89 13.54 39.89 12.98L39.89 5.15C39.89 4.66 40.40 4.70 40.40 4.41C40.40 4.23 40.15 4.20 39.84 4.20L38.44 4.20C37.94 4.20 37.69 4.23 37.69 4.41C37.69 4.73 38.22 4.59 38.22 5.19L38.22 7.80C38.22 8.18 38.01 8.20 37.77 8.20L33.38 8.22C33.11 8.20 32.90 8.16 32.90 7.74L32.90 5.21C32.90 4.63 33.46 4.72 33.46 4.41C33.46 4.21 33.24 4.20 33.01 4.20L31.30 4.20C30.83 4.20 30.69 4.24 30.69 4.41C30.69 4.84 31.18 4.54 31.18 5.21L31.16 12.87C31.16 13.50 30.59 13.50 30.59 13.79C30.59 13.97 30.74 14 31.12 14ZM42.62 6.68L43.29 6.68C43.53 6.68 43.69 6.51 43.69 6.30L43.69 4.16C43.69 3.91 43.54 3.75 43.23 3.75L42.69 3.75C42.45 3.75 42.28 3.91 42.28 4.17L42.28 6.30C42.28 6.48 42.38 6.68 42.62 6.68ZM49.21 14.17C51.39 14.17 53.12 13.30 53.12 11.19C53.12 7.06 46.70 9.09 46.70 6.80C46.70 5.68 47.88 5.45 49.21 5.45C50.48 5.45 50.99 5.82 51.09 5.88C51.76 6.26 51.44 6.61 51.66 6.72C51.88 6.83 51.97 6.68 52.12 6.44L52.84 5.33C52.99 5.10 53.09 4.90 52.91 4.76C52.67 4.58 52.58 4.98 52.07 4.69C51.88 4.58 51.02 3.98 49.21 3.98C46.56 3.98 45.09 5.00 45.14 6.80C45.23 10.89 51.49 8.86 51.49 11.19C51.49 12.38 50.44 12.66 49.21 12.66C47.17 12.66 46.68 12.00 46.54 11.86C46.21 11.55 46.47 11.31 46.30 11.19C46.12 11.05 45.89 11.26 45.71 11.51L45.08 12.38C44.90 12.63 44.73 12.87 44.94 13.02C45.15 13.17 45.30 12.84 45.74 13.15C45.95 13.30 46.84 14.17 49.21 14.17ZM63.13 14.21C65.07 14.21 65.88 13.52 66.37 13.17C66.85 12.84 66.96 13.05 67.10 12.91C67.23 12.78 67.20 12.67 67.10 12.56L66.09 11.38C65.98 11.24 65.83 11.23 65.70 11.35C65.52 11.54 65.84 11.65 65.44 12.05C65.11 12.38 64.48 12.75 63.13 12.75C61.26 12.75 59.81 11.05 59.81 9.04C59.81 6.97 61.24 5.45 63.24 5.45C64.36 5.45 64.97 5.64 65.44 6.05C65.72 6.30 65.63 6.54 65.79 6.62C66.00 6.73 66.11 6.61 66.23 6.41L66.82 5.50C66.96 5.28 67.10 5.03 66.93 4.90C66.74 4.75 66.47 5.08 66.14 4.83C65.62 4.44 64.81 4.02 63.24 4.02C60.07 4.02 58.16 6.27 58.16 9.04C58.16 11.83 60.21 14.21 63.13 14.21ZM68.03 9.16C68.03 12.52 70.48 14.20 72.95 14.24C75.50 14.28 78.08 12.59 78.08 9.16C78.08 5.71 75.61 4.02 73.12 3.99C70.59 3.98 68.03 5.71 68.03 9.16ZM69.71 9.16C69.71 6.69 71.41 5.47 73.11 5.49C74.77 5.50 76.44 6.72 76.44 9.16C76.44 11.58 74.72 12.78 73.01 12.75C71.34 12.73 69.71 11.52 69.71 9.16ZM79.28 14L81.05 14C81.40 14 81.52 13.93 81.52 13.78C81.52 13.44 81.02 13.54 81.02 12.92L81.02 10.78C81.02 10.25 81.26 10.28 81.38 10.28L84 10.28C84.38 10.28 84.48 10.32 84.57 10.56L85.58 12.92C85.83 13.52 85.29 13.40 85.29 13.79C85.29 13.96 85.41 14 85.97 14L87.33 14C87.57 14 87.79 14 87.79 13.78C87.79 13.40 87.35 13.47 87.18 13.06L86.00 10.25C85.93 10.08 85.95 9.97 86.14 9.84C86.67 9.49 87.44 8.51 87.44 7.39C87.44 5.19 85.76 4.20 83.94 4.20L79.70 4.20C79.11 4.20 78.92 4.26 78.92 4.42C78.92 4.77 79.45 4.56 79.45 5.49L79.45 12.89C79.45 13.47 78.93 13.48 78.93 13.79C78.93 14 79.17 14 79.28 14ZM81.51 8.88C81.24 8.88 81.03 8.79 81.03 8.54L81.02 6.10C81.02 5.77 81.19 5.68 81.45 5.68L83.94 5.68C85.29 5.68 85.81 6.38 85.81 7.39C85.81 8.27 85.06 8.88 84.14 8.88ZM89.15 14L90.79 14C91.15 14 91.31 14.03 91.31 13.80C91.31 13.41 90.72 13.68 90.72 12.80L90.72 8.40C90.72 8.08 90.89 8.01 91.14 8.22L96.04 12.38C96.22 12.56 96.33 12.77 96.33 12.92L96.33 13.66C96.33 13.85 96.40 14 96.60 14L97.92 14C98.10 14 98.35 14 98.35 13.76C98.35 13.40 97.90 13.48 97.90 12.94L97.90 5.54C97.90 4.56 98.41 4.82 98.41 4.47C98.41 4.23 98.13 4.20 97.61 4.20L96.66 4.20C96.05 4.20 95.83 4.20 95.83 4.44C95.83 4.80 96.33 4.52 96.33 5.63L96.33 10.15C96.33 10.47 96.17 10.51 95.98 10.35L90.99 6.05C90.80 5.87 90.71 5.80 90.71 5.54L90.71 4.56C90.71 4.31 90.57 4.20 90.30 4.20L89.31 4.20C88.86 4.20 88.68 4.21 88.68 4.41C88.68 4.72 89.15 4.55 89.17 5.40L89.17 12.77C89.19 13.62 88.63 13.43 88.63 13.80C88.63 14 88.87 14 89.15 14ZM100.49 14L107.70 14C107.87 14 107.94 13.90 107.94 13.71L107.94 12.61C107.94 12.35 107.94 12.12 107.69 12.12C107.34 12.12 107.59 12.61 106.89 12.61L102.58 12.61C102.31 12.61 102.16 12.60 102.16 12.28L102.16 10.05C102.14 9.83 102.28 9.72 102.55 9.72L105.32 9.72C105.73 9.72 105.78 10.14 105.95 10.14C106.15 10.14 106.25 10.02 106.25 9.63L106.25 8.50C106.25 8.19 106.23 7.97 105.98 7.97C105.78 7.97 105.78 8.34 105.32 8.34L102.47 8.34C102.21 8.34 102.14 8.26 102.14 7.95L102.14 5.87C102.14 5.67 102.24 5.59 102.41 5.59L106.78 5.59C107.55 5.59 107.39 6.05 107.67 6.05C107.94 6.05 107.94 5.73 107.94 5.56L107.94 4.51C107.94 4.24 107.76 4.20 107.59 4.20L100.88 4.20C100.46 4.20 99.99 4.14 99.99 4.38C99.99 4.84 100.55 4.49 100.55 5.40L100.56 12.94C100.56 13.61 99.95 13.45 99.95 13.83C99.95 14.04 100.37 14 100.49 14ZM109.56 14L111.33 14C111.68 14 111.80 13.93 111.80 13.78C111.80 13.44 111.30 13.54 111.30 12.92L111.30 10.78C111.30 10.25 111.54 10.28 111.66 10.28L114.28 10.28C114.66 10.28 114.76 10.32 114.86 10.56L115.86 12.92C116.12 13.52 115.57 13.40 115.57 13.79C115.57 13.96 115.70 14 116.26 14L117.61 14C117.85 14 118.08 14 118.08 13.78C118.08 13.40 117.63 13.47 117.46 13.06L116.28 10.25C116.21 10.08 116.23 9.97 116.42 9.84C116.96 9.49 117.73 8.51 117.73 7.39C117.73 5.19 116.05 4.20 114.23 4.20L109.98 4.20C109.40 4.20 109.20 4.26 109.20 4.42C109.20 4.77 109.73 4.56 109.73 5.49L109.73 12.89C109.73 13.47 109.21 13.48 109.21 13.79C109.21 14 109.45 14 109.56 14ZM111.79 8.88C111.52 8.88 111.31 8.79 111.31 8.54L111.30 6.10C111.30 5.77 111.47 5.68 111.73 5.68L114.23 5.68C115.57 5.68 116.09 6.38 116.09 7.39C116.09 8.27 115.35 8.88 114.42 8.88Z"></path></g><!----><g data-v-423bf9ae="" id="93720cb0-7a6e-4f5d-a2bd-4a748a54c640" transform="matrix(1.0772222730848524,0,0,1.0772222730848524,-6.757903611971656,-0.30499508185473445)" stroke="none" fill="black"><path d="M64.008 72.381c4.002-3.149 12.23-11.582 15.089-21.179-6.511-8.01-33.912-42.187-40.238-50.08-.647 7.491-7.229 23.255-18.649 28.524-5.247 2.56-10.477 4.156-12.467 4.721l39.077 47.32c4.415-1.424 13.138-6.127 17.188-9.306zM90.405 75.352c-6.5 3.781-13.381 7.281-20.674 9.929-8.632 3.134-19.05 6.681-22.386 7.664v5.127l43.046-15.479.014-7.241zM6.891 35.865v14.223l38.812 47.857.033-15.043z"></path><path d="M88.717 70.42c-5.018 3.936-11.386 7.921-18.278 11.363-6.521 3.266-20.879 7.668-23.093 8.339v1.144c3.686-1.09 13.036-3.898 21.237-7.013 9.104-3.457 22.12-11.628 22.12-11.628l-1.986-2.205zM80.877 50.835l-.114.403c-2.851 10.142-11.25 18.858-15.762 22.409-4.225 3.319-13.009 8.054-17.655 9.561v2.168c6.53-2.034 15.656-6.36 20.721-9.922 8.699-6.128 17.195-14.63 22.419-22.404l.047.036C84.648 46.442 51.938 9.001 49.818 6.309c-.719 1.357-1.368 2.265-2.422 2.887C58.228 22.704 75.994 44.843 80.613 50.51l.264.325z"></path><path d="M87.321 59.925s-11.588 12.1-18.328 16.846c-5.696 4.008-14.5 7.942-21.647 10.168v1.498c.692-.212 1.838-.566 3.268-1.021 5.266-1.677 14.41-4.722 19.106-7.072 9.305-4.648 17.623-10.274 22.834-15.386l.161-.16-5.394-4.873z"></path></g><!----></svg>